<svg width="93" height="29" viewBox="0 0 93 29" fill="none" xmlns="http://www.w3.org/2000/svg">
<path d="M5.8 21.28C2.58667 21.28 0.98 20.1133 0.98 17.78C0.98 17.42 1.02 17.0333 1.1 16.62L1.36 15.14H4.96L4.84 15.8C4.78667 16.1333 4.76 16.4733 4.76 16.82C4.76 17.1667 4.84667 17.4533 5.02 17.68C5.28667 18.0133 5.72667 18.18 6.34 18.18C6.95333 18.18 7.44667 18.0133 7.82 17.68C8.20667 17.3467 8.48 16.7333 8.64 15.84L10.28 6.58H13.86L12.18 16.12C11.8733 17.8933 11.2067 19.2 10.18 20.04C9.15333 20.8667 7.69333 21.28 5.8 21.28ZM20.1567 6.6L17.6367 21H14.0167L16.5567 6.6H20.1567ZM26.762 6.6L28.902 13.5L33.502 6.6H37.282L34.742 21H31.122L32.562 12.88L29.482 17.72H26.862L25.502 12.88L24.062 21H20.462L23.002 6.6H26.762ZM45.9309 6.6C47.4509 6.6 48.5309 6.93333 49.1709 7.6C49.6509 8.10667 49.8909 8.74667 49.8909 9.52C49.8909 9.78667 49.8643 10.0667 49.8109 10.36L49.6309 11.32C49.4843 12.08 49.1976 12.6733 48.7709 13.1C48.3576 13.5267 47.9909 13.74 47.6709 13.74L47.6509 13.9C48.0243 13.9 48.4043 14.1067 48.7909 14.52C49.1776 14.9333 49.3709 15.42 49.3709 15.98C49.3709 16.2067 49.3443 16.4467 49.2909 16.7L49.1709 17.32C48.9576 18.4667 48.4443 19.3667 47.6309 20.02C46.8309 20.6733 45.7109 21 44.2709 21H37.5909L40.1309 6.6H45.9309ZM44.1309 15.12H42.2309L41.7509 17.88H43.6509C43.6776 17.88 43.7043 17.88 43.7309 17.88C44.3443 17.88 44.8309 17.74 45.1909 17.46C45.5509 17.1667 45.7309 16.8133 45.7309 16.4C45.7309 15.5467 45.1976 15.12 44.1309 15.12ZM44.6709 9.72H43.1709L42.6509 12.7H44.1309C45.4109 12.7 46.0509 12.14 46.0509 11.02C46.0509 10.6333 45.9309 10.32 45.6909 10.08C45.4643 9.84 45.1243 9.72 44.6709 9.72ZM59.0755 6.6C60.5955 6.6 61.6755 6.93333 62.3155 7.6C62.7955 8.10667 63.0355 8.74667 63.0355 9.52C63.0355 9.78667 63.0088 10.0667 62.9555 10.36L62.6755 11.92C62.5155 12.7867 62.2355 13.4867 61.8355 14.02C61.4488 14.5533 61.0155 14.9333 60.5355 15.16L62.3555 21H58.3155L56.6355 15.62H55.3955L54.5755 21H50.7355L53.2755 6.6H59.0755ZM57.8155 9.72H56.3155L55.7955 13.2H57.1955C57.9021 13.2 58.4088 13.0333 58.7155 12.7C59.0221 12.3533 59.1755 11.9 59.1755 11.34C59.1755 10.26 58.7221 9.72 57.8155 9.72Z" fill="black"/>
<path d="M90.4 21H79.86L80.42 17.88H80.44L88.18 9.72H81.84L82.4 6.6H92.96L92.4 9.72L84.66 17.88H90.96L90.4 21Z" fill="black"/>
<circle cx="72" cy="14" r="5" stroke="#A855F7" stroke-width="6"/>
<circle cx="72" cy="14" r="5.5" stroke="black"/>
</svg>
